<?xml version="1.0" encoding="UTF-8" standalone="no"?>
<!-- Created with Inkscape (http://www.inkscape.org/) -->
<svg width="880" height="310" viewBox="0 0 232.83333 82.020832" version="1.1" id="svg5" xml:space="preserve" xmlns="http://www.w3.org/2000/svg" xmlns:svg="http://www.w3.org/2000/svg"><script xmlns=""/><defs id="defs2"/><g id="layer1"><rect style="fill:#0085ca;fill-opacity:1;stroke-width:1.5" id="rect594" width="232.83333" height="82.020836" x="0" y="0"/><g id="g4930" transform="matrix(0.48502509,0,0,0.48502509,67.511407,9.8475559)"><g id="图层_3"><g id="g4500"><radialGradient id="SVGID_1_" cx="94.625" cy="63.5" gradientTransform="matrix(0,1,0.7598,0,-14.8717,-31.125)" gradientUnits="userSpaceOnUse" r="43.750702"><stop offset="0.5926" style="stop-color:#FAFAFA" id="stop4487"/><stop offset="1" style="stop-color:#E0E0E0" id="stop4489"/></radialGradient><ellipse cx="34" cy="64.25" rx="29.620001" ry="44" style="fill:url(#SVGID_1_)" id="ellipse4492"/><g style="opacity:0.2" id="g4496"><path d="m 34,23.25 c 14.68,0 26.62,18.39 26.62,41 0,22.61 -11.94,41 -26.62,41 -14.68,0 -26.62,-18.39 -26.62,-41 0,-22.61 11.94,-41 26.62,-41 m 0,-3 c -16.36,0 -29.62,19.7 -29.62,44 0,24.3 13.26,44 29.62,44 16.36,0 29.62,-19.7 29.62,-44 0,-24.3 -13.26,-44 -29.62,-44 z" style="fill:#424242" id="path4494"/></g><path d="m 25.57,60.14 c -2.67,-2.51 -2.07,-7.49 1.34,-11.13 0.18,-0.19 0.36,-0.36 0.54,-0.54 -1.52,-0.86 -3.2,-1.35 -4.95,-1.35 -7.11,0 -12.88,7.84 -12.88,17.5 0,9.66 5.76,17.5 12.88,17.5 7.12,0 12.88,-7.84 12.88,-17.5 0,-1.73 -0.19,-3.41 -0.54,-4.99 -3.2,2.31 -7.03,2.61 -9.27,0.51 z" style="fill:#424242" id="path4498"/></g><g style="opacity:0.2" id="g4504"><path d="m 22.42,50.13 c -2.35,4.35 -2.05,9.25 1.09,12.2 1.55,1.46 3.59,2.23 5.89,2.23 0.98,0 1.98,-0.14 2.97,-0.42 0,0.16 0.01,0.33 0.01,0.49 0,7.86 -4.52,14.5 -9.88,14.5 -5.36,0 -9.88,-6.64 -9.88,-14.5 0,-7.83 4.48,-14.44 9.8,-14.5 m 0.08,-3.01 c -7.11,0 -12.88,7.84 -12.88,17.5 0,9.66 5.76,17.5 12.88,17.5 7.12,0 12.88,-7.84 12.88,-17.5 0,-1.73 -0.19,-3.41 -0.54,-4.99 -1.74,1.25 -3.68,1.92 -5.44,1.92 -1.47,0 -2.81,-0.46 -3.83,-1.42 C 22.9,57.62 23.5,52.64 26.91,49 c 0.18,-0.19 0.36,-0.36 0.54,-0.54 -1.52,-0.85 -3.19,-1.34 -4.95,-1.34 z" style="fill:#eeeeee" id="path4502"/></g><g id="g4519"><radialGradient id="SVGID_3_" cx="34.625" cy="63.5" gradientTransform="matrix(0,1,0.7598,0,45.1283,28.875)" gradientUnits="userSpaceOnUse" r="43.750702"><stop offset="0.5926" style="stop-color:#FAFAFA" id="stop4506"/><stop offset="1" style="stop-color:#E0E0E0" id="stop4508"/></radialGradient><ellipse cx="94" cy="64.25" rx="29.620001" ry="44" style="fill:url(#SVGID_3_)" id="ellipse4511"/><g style="opacity:0.2" id="g4515"><path d="m 94,23.25 c 14.68,0 26.62,18.39 26.62,41 0,22.61 -11.94,41 -26.62,41 -14.68,0 -26.62,-18.39 -26.62,-41 0,-22.61 11.94,-41 26.62,-41 m 0,-3 c -16.36,0 -29.62,19.7 -29.62,44 0,24.3 13.26,44 29.62,44 16.36,0 29.62,-19.7 29.62,-44 0,-24.3 -13.26,-44 -29.62,-44 z" style="fill:#424242" id="path4513"/></g><path d="m 85.57,60.14 c -2.67,-2.51 -2.07,-7.49 1.34,-11.13 0.18,-0.19 0.36,-0.36 0.54,-0.54 -1.52,-0.86 -3.2,-1.35 -4.95,-1.35 -7.11,0 -12.88,7.84 -12.88,17.5 0,9.66 5.76,17.5 12.88,17.5 7.12,0 12.88,-7.84 12.88,-17.5 0,-1.73 -0.19,-3.41 -0.54,-4.99 -3.2,2.31 -7.03,2.61 -9.27,0.51 z" style="fill:#424242" id="path4517"/></g><g style="opacity:0.2" id="g4523"><path d="m 82.44,50.13 c -0.77,1.44 -1.27,2.98 -1.46,4.51 -0.36,3.03 0.56,5.83 2.54,7.69 1.55,1.46 3.59,2.23 5.89,2.23 0.98,0 1.98,-0.14 2.97,-0.42 0,0.16 0.01,0.33 0.01,0.49 0,7.86 -4.52,14.5 -9.88,14.5 -5.36,0 -9.88,-6.64 -9.88,-14.5 -0.01,-7.83 4.48,-14.45 9.81,-14.5 m 0.06,-3.01 c -7.11,0 -12.88,7.84 -12.88,17.5 0,9.66 5.76,17.5 12.88,17.5 7.12,0 12.88,-7.84 12.88,-17.5 0,-1.73 -0.19,-3.41 -0.54,-4.99 -1.74,1.25 -3.68,1.92 -5.44,1.92 -1.47,0 -2.81,-0.46 -3.83,-1.42 C 82.9,57.62 83.5,52.64 86.91,49 c 0.18,-0.19 0.36,-0.36 0.54,-0.54 -1.52,-0.85 -3.19,-1.34 -4.95,-1.34 z" style="fill:#eeeeee" id="path4521"/></g></g></g><path d="m 22.986974,64.87097 v 4.404775 a 3.670646,3.670646 0 0 1 -7.34129,0 V 64.87097 H 11.240908 V 37.855015 l 2.642864,-19.43093 q 1.174608,-4.648506 6.410417,-6.410416 11.105906,-2.9365171 17.008305,-2.9365171 5.902398,0 17.006837,2.9365171 6.118235,1.76191 6.411884,6.410416 l 2.642862,19.43093 V 64.87097 h -4.404773 v 4.404775 a 3.6706458,3.6706458 0 0 1 -7.341289,0 V 64.87097 Z M 26.65762,13.922405 a 1.6150843,1.6150843 0 0 0 0,3.230167 h 21.289746 a 1.6150843,1.6150843 0 0 0 0,-3.230167 z m -6.019859,6.31351 c -0.367062,0 -2.569452,0 -2.936517,2.936518 l -1.835323,14.682582 q -0.29365,2.349214 2.055564,2.349214 h 38.762021 c 0,0 2.34921,0 2.055562,-2.349214 L 56.903746,23.172433 Q 56.53668,20.235915 53.967227,20.235915 Z m -1.321432,28.998102 a 3.6706465,3.6706465 0 0 0 0,7.341293 3.6706465,3.6706465 0 0 0 0,-7.341293 z m 35.97233,0 a 3.6706465,3.6706465 0 0 0 0,7.341293 3.6706465,3.6706465 0 0 0 0,-7.341293 z" stroke="none" fill="#000000" id="path310" style="fill:#ffffff;stroke-width:0.146825"/><g aria-label=".me" id="text436" style="font-size:59.9722px;font-family:'CMU Typewriter Text';-inkscape-font-specification:'CMU Typewriter Text';fill:#ffffff;stroke-width:1.5"><path d="m 136.2114,57.6527 q -1.13947,0 -2.06904,-0.989541 -0.92957,-0.989541 -0.92957,-2.129013 0,-1.319388 0.89958,-2.158999 0.92957,-0.839611 2.09903,-0.839611 1.19944,0 2.06904,0.839611 0.89958,0.839611 0.89958,2.158999 0,1.139472 -0.89958,2.129013 -0.89958,0.989541 -2.06904,0.989541 z" style="font-family:'Edu NSW ACT Cursive';-inkscape-font-specification:'Edu NSW ACT Cursive'" id="path3604"/><path d="m 191.05587,57.232895 q -2.42887,0 -3.95816,-0.929569 -1.52929,-0.929569 -2.33892,-2.548819 -0.80962,-1.649235 -1.01953,-3.778248 -0.17991,-2.158999 0.06,-4.587873 l 0.98954,-9.775469 q 0.09,-0.989541 0,-2.278943 -0.06,-1.319389 -0.41981,-2.548819 -0.32985,-1.259416 -0.98954,-2.06904 -0.65969,-0.839611 -1.70921,-0.839611 -2.72873,0 -5.30754,3.628318 -2.5788,3.598332 -6.08718,10.944926 l -1.43933,12.354273 q -0.11994,0.899583 -0.4198,1.679221 -0.26988,0.749653 -1.61925,0.749653 -1.22943,0 -1.46932,-0.629708 -0.23989,-0.659694 -0.11995,-1.679222 l 2.09903,-19.311048 q 0.09,-0.989541 0.03,-2.278943 -0.06,-1.319389 -0.38982,-2.548819 -0.32985,-1.259416 -0.98954,-2.06904 -0.62971,-0.839611 -1.67923,-0.839611 -2.81869,0 -5.39749,3.658304 -2.54882,3.658304 -6.11717,11.124843 l -1.31939,12.14437 q -0.09,0.899583 -0.35983,1.679221 -0.26987,0.749653 -1.58926,0.749653 -1.22943,0 -1.52929,-0.629708 -0.26988,-0.659694 -0.14993,-1.679222 l 2.96862,-28.037003 q 0.11994,-1.139471 0.62971,-1.619249 0.53975,-0.479777 1.43933,-0.479777 0.98954,0 1.34938,0.449791 0.38981,0.419805 0.26987,1.529291 l -0.74965,7.22665 q 2.84868,-4.91772 5.36751,-7.346594 2.51883,-2.45886 5.51744,-2.45886 3.0286,0 4.70782,2.758721 1.67922,2.728735 1.82915,7.046733 2.75872,-4.76779 5.30754,-7.286622 2.54882,-2.518832 5.54743,-2.518832 2.51883,0 4.04812,1.739193 1.52929,1.739194 2.09903,4.347985 0.59972,2.60879 0.32985,5.217581 l -0.95956,9.415635 q -0.38982,3.68829 0.32985,6.327067 0.71967,2.608791 2.81869,2.608791 z m 9.38565,-5.547428 q -1.37936,1.289402 -2.87867,2.578804 -1.46931,1.259416 -3.08856,2.129013 -1.61925,0.839611 -3.41842,0.839611 -0.8696,0 -1.25941,-0.509764 -0.38982,-0.53975 -0.41981,-1.169458 0,-0.629708 0.32985,-1.169458 0.35983,-0.539749 0.95955,-0.539749 1.67922,0 3.32846,-1.019528 1.64923,-1.049513 3.20851,-2.578804 1.58927,-1.529291 3.08857,-2.938638 0.29986,-0.299861 0.65969,-0.299861 0.4498,0 0.77964,0.479778 0.32985,0.449791 0.29986,1.22943 -0.03,0.629708 -0.38982,1.409346 -0.32984,0.779639 -1.19944,1.559278 z" style="font-family:'Edu NSW ACT Cursive';-inkscape-font-specification:'Edu NSW ACT Cursive'" id="path3606"/><path d="m 203.85984,45.838177 q 2.30893,-1.76918 4.58787,-3.658304 2.27895,-1.91911 4.25803,-3.68829 3.02859,-2.728735 3.89819,-4.827762 0.89958,-2.099027 0.95956,-2.908652 0.06,-0.389819 -0.06,-0.929569 -0.09,-0.569736 -0.68968,-0.989541 -0.56973,-0.449792 -2.03905,-0.449792 -2.24896,0 -3.95817,1.259417 -1.67922,1.259416 -2.87866,3.328457 -1.16946,2.039054 -1.91911,4.527901 -0.74965,2.45886 -1.10949,4.91772 -0.35983,2.428874 -0.4198,4.437943 -0.03,2.248957 0.44979,3.868206 0.50976,1.61925 1.97908,2.488847 1.46932,0.83961 4.28801,0.83961 l -0.29986,3.778249 q -3.02859,0 -5.36751,-0.989541 -2.33892,-0.989542 -3.62832,-3.268485 -1.25941,-2.30893 -1.10948,-6.207123 0.14993,-4.078109 0.98954,-8.06626 0.86959,-4.018138 2.54882,-7.286623 1.67922,-3.29847 4.28801,-5.247567 2.60879,-1.979082 6.23711,-1.979082 2.30893,0 3.77825,0.719666 1.4993,0.719666 2.159,2.069041 0.65969,1.349374 0.44979,3.208512 -0.11995,1.379361 -1.46932,4.07811 -1.34938,2.698749 -4.91772,6.027206 -2.42888,2.278943 -5.21758,4.617859 -2.75873,2.30893 -5.54743,4.407957 z m 7.34659,8.216191 q 1.37936,0 2.69875,-0.779638 1.34938,-0.809625 2.51883,-1.979083 1.16946,-1.169458 2.06905,-2.338915 0.89958,-1.169458 1.43933,-1.919111 0.77964,-1.049513 1.55928,-1.199444 0.80962,-0.14993 1.46931,0.359833 0.41981,0.269875 0.47978,0.779639 0.06,0.509764 -0.29986,1.379361 -0.35983,0.83961 -1.22943,2.158999 -0.8696,1.409346 -2.5788,3.118554 -1.67923,1.709208 -3.86821,2.968624 -2.18899,1.22943 -4.55789,1.22943 -0.74965,0 -1.10948,-0.509764 -0.32985,-0.479777 -0.32985,-1.109485 0,-0.779639 0.44979,-1.469319 0.47978,-0.689681 1.2894,-0.689681 z" style="font-family:'Edu NSW ACT Cursive';-inkscape-font-specification:'Edu NSW ACT Cursive'" id="path3608"/></g></g><script xmlns=""/><link xmlns=""/></svg>